<!DOCTYPE svg PUBLIC "-//W3C//DTD SVG 1.1//EN" "http://www.w3.org/Graphics/SVG/1.1/DTD/svg11.dtd">
<!-- Uploaded to: SVG Repo, www.svgrepo.com, Transformed by: SVG Repo Mixer Tools -->
<svg height="800px" width="800px" version="1.1" id="Layer_1" xmlns="http://www.w3.org/2000/svg" xmlns:xlink="http://www.w3.org/1999/xlink" viewBox="0 0 512 512" xml:space="preserve" fill="#000000">
<g id="SVGRepo_bgCarrier" stroke-width="0"/>
<g id="SVGRepo_tracerCarrier" stroke-linecap="round" stroke-linejoin="round"/>
<g id="SVGRepo_iconCarrier"> <g> <path style="fill:#31d35c;" d="M417.783,113.226H194.621c-8.475,0-15.345-6.87-15.345-15.345s6.87-15.345,15.345-15.345h223.162 c8.475,0,15.345,6.87,15.345,15.345S426.258,113.226,417.783,113.226z"/> <path style="fill:#31d35c;" d="M231.96,454.967H95.004c-8.475,0-15.345-6.87-15.345-15.345v-61.38 c0-8.475,6.87-15.345,15.345-15.345h101.533c8.475,0,15.345,6.87,15.345,15.345s-6.87,15.345-15.345,15.345h-86.188v30.69H231.96 c12.761,0,23.143-10.382,23.143-23.145V265.449h-30.69v51.415c0,8.475-6.87,15.345-15.345,15.345 c-8.475,0-15.345-6.87-15.345-15.345v-66.76c0-8.475,6.87-15.345,15.345-15.345h61.38c8.475,0,15.345,6.87,15.345,15.345v151.029 C285.793,430.817,261.643,454.967,231.96,454.967z"/> <path style="fill:#31d35c;" d="M328.121,265.45h-306.9c-8.475,0-15.345-6.87-15.345-15.345V15.345C5.876,6.87,12.746,0,21.221,0 h445.176c8.475,0,15.345,6.87,15.345,15.345s-6.87,15.345-15.345,15.345H36.566v204.07H319.35L404.56,90.094 c4.301-7.303,13.708-9.735,21.009-5.434c7.303,4.301,9.735,13.708,5.434,21.009l-89.662,152.224 C338.585,262.576,333.556,265.45,328.121,265.45z"/> </g> <polygon style="fill:#31d35c;" points="417.782,97.881 350.862,211.496 490.779,211.496 490.779,97.881 "/> <path style="fill:#31d35c;" d="M490.779,226.841H350.862c-5.506,0-10.59-2.949-13.323-7.731c-2.731-4.78-2.693-10.659,0.101-15.403 l66.92-113.616c2.758-4.683,7.788-7.557,13.221-7.557h72.998c8.475,0,15.345,6.87,15.345,15.345v113.616 C506.124,219.971,499.254,226.841,490.779,226.841z M377.71,196.151h97.726v-82.924h-48.882L377.71,196.151z"/> <path style="fill:#31d35c;" d="M21.221,321.216v175.439c48.446,0,87.72-39.274,87.72-87.72S69.668,321.216,21.221,321.216z"/> <path style="fill:#31d35c;" d="M21.221,512c-8.475,0-15.345-6.87-15.345-15.345V321.216c0-8.475,6.87-15.345,15.345-15.345 c56.83,0,103.066,46.235,103.066,103.066S78.051,512,21.221,512z M36.566,338.198v141.476c32.562-7.057,57.031-36.093,57.031-70.737 S69.128,345.253,36.566,338.198z"/> </g>
</svg>