<?xml version="1.0" standalone="no"?>
<!DOCTYPE svg PUBLIC "-//W3C//DTD SVG 20010904//EN"
 "http://www.w3.org/TR/2001/REC-SVG-20010904/DTD/svg10.dtd">
<svg version="1.0" xmlns="http://www.w3.org/2000/svg"
 width="357.000000pt" height="344.000000pt" viewBox="0 0 357.000000 344.000000"
 preserveAspectRatio="xMidYMid meet">

<g transform="translate(0.000000,344.000000) scale(0.100000,-0.100000)"
fill="#000000" stroke="none">
<path d="M1550 2635 c0 -70 3 -73 58 -59 20 6 22 13 22 65 l0 59 -40 0 -40 0
0 -65z"/>
<path d="M1987 2668 c-13 -18 -52 -73 -87 -123 -73 -103 -202 -273 -242 -319
l-27 -31 -1 140 0 141 -40 -4 -40 -4 0 -399 0 -399 40 0 40 0 0 195 0 196 71
89 c68 87 72 90 111 90 34 0 39 3 33 18 -4 9 -9 25 -12 34 -3 10 45 87 131
207 75 104 136 192 136 195 0 3 -20 6 -44 6 -39 0 -48 -4 -69 -32z"/>
<path d="M1561 2559 c-95 -12 -165 -50 -190 -103 -21 -43 -27 -121 -15 -185
11 -53 72 -102 147 -115 l37 -7 0 40 c0 36 -4 41 -37 58 -49 24 -65 55 -59
117 10 96 55 117 259 124 160 5 152 2 191 70 6 9 -23 12 -131 11 -76 -1 -167
-5 -202 -10z"/>
<path d="M1996 2523 l-26 -37 45 -11 c58 -15 73 -29 89 -84 13 -45 13 -46 52
-42 21 1 40 4 41 5 7 7 -17 109 -31 130 -17 27 -71 58 -118 70 -23 5 -31 1
-52 -31z"/>
<path d="M1746 2195 c-16 -20 -26 -39 -22 -42 3 -3 79 -9 168 -12 210 -8 228
-18 228 -121 0 -61 -19 -102 -56 -119 -41 -18 -155 -30 -297 -31 l-128 0 3
-37 3 -38 175 1 c253 2 327 23 374 104 29 49 29 181 0 231 -42 72 -80 84 -299
94 l-120 5 -29 -35z"/>
<path d="M1865 2013 c53 -118 53 -118 90 -121 21 -2 42 1 46 5 5 5 -13 57 -43
121 l-53 112 -47 0 -47 0 54 -117z"/>
<path d="M1352 1975 c6 -95 47 -141 146 -163 l42 -10 0 44 c0 35 -3 44 -17 44
-10 0 -31 10 -47 23 -23 19 -30 33 -34 75 l-5 52 -44 0 -45 0 4 -65z"/>
<path d="M2012 1792 c-48 -4 -49 -9 -11 -84 19 -36 22 -38 69 -38 l49 0 -29
61 c-15 33 -30 61 -32 62 -2 1 -22 1 -46 -1z"/>
<path d="M583 1462 c-26 -4 -63 -46 -63 -71 0 -28 28 -59 80 -87 27 -15 52
-35 55 -45 22 -68 -74 -108 -103 -44 -13 29 -32 33 -32 7 0 -57 105 -88 142
-42 46 57 29 103 -55 149 -55 29 -69 61 -42 91 24 27 51 25 71 -5 19 -29 47
-35 37 -7 -15 42 -46 61 -90 54z"/>
<path d="M785 1462 c-11 -2 -30 -13 -42 -25 -22 -19 -23 -29 -23 -149 0 -79 4
-128 10 -128 6 0 11 14 11 30 4 81 -1 75 62 78 l57 3 0 -56 c0 -42 3 -55 15
-55 12 0 15 18 15 103 0 126 -11 169 -48 187 -34 18 -33 17 -57 12z m55 -42
c15 -15 20 -33 20 -70 l0 -50 -59 0 -59 0 3 51 c5 80 51 113 95 69z"/>
<path d="M963 1455 c-17 -8 -36 -22 -42 -34 -6 -11 -11 -73 -11 -140 0 -101 2
-121 15 -121 12 0 15 14 15 70 l0 70 40 0 c22 0 40 5 40 10 0 6 -18 10 -40 10
l-40 0 0 43 c0 57 27 85 68 71 15 -5 31 -19 37 -32 13 -30 39 -30 29 1 -15 51
-62 72 -111 52z"/>
<path d="M1162 1458 c-25 -7 -37 -18 -48 -43 -17 -42 -19 -174 -2 -210 15 -33
62 -58 91 -49 31 9 67 44 67 66 0 26 -13 22 -38 -12 -45 -61 -102 -26 -102 62
l0 48 70 0 70 0 0 48 c0 38 -5 53 -22 69 -31 27 -47 31 -86 21z m61 -36 c9
-10 18 -29 19 -43 3 -23 0 -24 -54 -27 -56 -3 -58 -2 -58 22 0 28 35 66 60 66
9 0 24 -8 33 -18z"/>
<path d="M1362 1458 c-25 -7 -37 -18 -48 -43 -16 -40 -18 -144 -3 -197 27
-100 159 -75 159 29 l0 43 -40 0 c-22 0 -40 -4 -40 -10 0 -5 11 -10 23 -10 32
0 37 -7 26 -43 -10 -35 -24 -47 -56 -47 -39 0 -53 36 -53 132 0 75 3 91 20
108 11 11 29 20 39 20 23 0 51 -25 51 -46 0 -8 7 -14 15 -14 18 0 19 29 1 52
-19 26 -57 36 -94 26z"/>
<path d="M1507 1463 c-11 -10 -8 -204 4 -246 18 -66 104 -83 145 -29 17 22 20
292 3 275 -6 -6 -11 -55 -11 -119 0 -104 -8 -140 -32 -156 -19 -13 -45 -9 -66
12 -18 18 -20 33 -20 145 0 114 -5 137 -23 118z"/>
<path d="M1764 1459 c-17 -5 -36 -19 -43 -32 -17 -32 -21 -267 -3 -267 8 0 12
18 12 55 l0 55 60 0 60 0 -3 -55 c-1 -39 2 -55 10 -55 10 0 13 32 13 128 0
121 -1 130 -22 149 -31 27 -47 31 -84 22z m52 -27 c20 -13 32 -46 32 -89 l1
-43 -61 0 -60 0 4 56 c3 40 10 61 23 70 21 15 44 18 61 6z"/>
<path d="M1900 1316 c0 -132 2 -156 15 -156 12 0 15 14 15 70 0 64 2 70 21 70
16 0 28 -16 52 -70 17 -38 37 -70 45 -70 16 0 10 24 -24 92 l-24 47 25 25 c52
52 15 136 -59 136 -19 0 -41 3 -50 6 -14 5 -16 -12 -16 -150z m107 103 c37
-31 0 -99 -54 -99 -21 0 -23 4 -23 61 l0 62 32 -7 c17 -3 37 -11 45 -17z"/>
<path d="M2108 1462 c-16 -3 -18 -19 -18 -153 l0 -149 60 0 c51 0 65 4 85 25
23 22 25 31 25 123 0 122 -11 142 -86 151 -27 4 -57 5 -66 3z m100 -38 c20
-14 22 -23 22 -114 0 -94 -1 -100 -24 -115 -14 -9 -37 -15 -53 -13 l-28 3 -3
128 -3 127 33 0 c19 0 44 -7 56 -16z"/>
<path d="M2420 1315 c0 -131 2 -155 15 -155 12 0 15 13 15 59 0 40 5 62 15 71
18 15 13 21 59 -62 21 -38 44 -68 52 -68 8 0 14 2 14 4 0 2 -21 41 -46 86
l-46 82 42 60 c27 38 39 63 33 69 -6 6 -31 -18 -66 -67 l-57 -77 0 70 c0 54
-4 72 -15 77 -13 5 -15 -16 -15 -149z"/>
<path d="M2680 1313 l0 -153 58 0 c63 1 86 13 102 54 15 39 12 161 -4 200 -16
38 -37 48 -108 50 l-48 1 0 -152z m120 107 c17 -17 20 -33 20 -110 0 -105 -14
-130 -75 -130 l-35 0 0 130 0 130 35 0 c22 0 43 -8 55 -20z"/>
<path d="M2944 1462 c-49 -7 -75 -79 -44 -117 8 -9 35 -27 61 -40 65 -34 80
-81 34 -111 -32 -21 -68 -12 -83 21 -6 14 -16 25 -22 25 -19 0 -10 -36 15 -60
63 -59 172 8 137 85 -6 13 -37 41 -69 62 -65 43 -72 59 -45 93 22 28 67 22 77
-10 3 -11 13 -20 21 -20 19 0 18 13 -6 42 -21 27 -42 36 -76 30z"/>
<path d="M2620 1310 c0 -127 2 -150 15 -150 13 0 15 23 15 150 0 127 -2 150
-15 150 -13 0 -15 -23 -15 -150z"/>
</g>
</svg>
